<?xml version="1.0" standalone="no"?>
<svg viewBox="0 0 200 200" xmlns="http://www.w3.org/2000/svg">
  <path fill="#D3F9D8" d="M41.1,-66.9C54.3,-63.6,66.7,-54.6,69.1,-42.5C71.5,-30.4,64,-15.2,62.1,-1.1C60.3,13.1,64.1,26.2,60.9,36.9C57.7,47.7,47.5,56.1,36.2,59.3C24.9,62.5,12.4,60.4,0.6,59.3C-11.2,58.2,-22.3,58.1,-31.3,53.6C-40.3,49,-47.2,40.1,-52.6,30.5C-57.9,20.8,-61.8,10.4,-63,-0.7C-64.2,-11.8,-62.8,-23.6,-56.2,-31.1C-49.5,-38.6,-37.8,-41.8,-27.5,-46.8C-17.3,-51.8,-8.7,-58.7,2.7,-63.2C14,-67.8,27.9,-70.2,41.1,-66.9Z" transform="translate(100 100)" />
</svg>
